<svg
  width="104"
  height="49"
  viewBox="0 0 104 49"
  fill="none"
  xmlns="http://www.w3.org/2000/svg"
>
  <path
    fillRule="evenodd"
    clipRule="evenodd"
    d="M45.926 9C44.2702 9 42.916 10.3542 42.916 12.01V18.74C42.916 20.3958 44.2702 21.75 45.926 21.75H57.406C59.0618 21.75 60.416 20.3958 60.416 18.74V18.3H59.266C57.8565 18.3 56.4883 17.2693 56.359 15.7467C56.2782 14.8845 56.6065 14.079 57.1753 13.52C57.6869 12.9981 58.3884 12.7 59.146 12.7H60.416V12.01C60.416 10.3542 59.0618 9 57.406 9H45.926ZM41.416 12.01C41.416 9.5258 43.4418 7.5 45.926 7.5H57.406C59.8902 7.5 61.916 9.5258 61.916 12.01V13.45C61.916 13.8642 61.5802 14.2 61.166 14.2H59.146C58.787 14.2 58.4712 14.3392 58.2434 14.5732L58.2299 14.5867C57.9639 14.8464 57.8152 15.2162 57.8526 15.6089L57.8535 15.6177L57.8534 15.6177C57.9063 16.2527 58.5169 16.8 59.266 16.8H61.166C61.5802 16.8 61.916 17.1358 61.916 17.55V18.74C61.916 21.2242 59.8902 23.25 57.406 23.25H45.926C43.4418 23.25 41.416 21.2242 41.416 18.74V12.01Z"
    fill="#443616"
  />
  <path
    fillRule="evenodd"
    clipRule="evenodd"
    d="M53.766 4.45001C53.766 3.64248 52.959 3.0881 52.2118 3.37129L44.2714 6.37144C43.4547 6.68065 42.916 7.46046 42.916 8.34002V12.91C42.916 13.3242 42.5802 13.66 42.166 13.66C41.7518 13.66 41.416 13.3242 41.416 12.91V8.34002C41.416 6.8397 42.3376 5.49939 43.7406 4.96851L51.6802 1.96866C51.68 1.96872 51.6803 1.96861 51.6802 1.96866C53.4129 1.31223 55.266 2.59768 55.266 4.45001V8.24999C55.266 8.66421 54.9302 8.99999 54.516 8.99999C54.1018 8.99999 53.766 8.66421 53.766 8.24999V4.45001Z"
    fill="#443616"
  />
  <path
    fillRule="evenodd"
    clipRule="evenodd"
    d="M59.1449 14.2002C58.7858 14.2002 58.47 14.3394 58.2422 14.5734L58.2288 14.5869C57.9627 14.8466 57.8141 15.2164 57.8515 15.6091L57.8523 15.6179L57.8523 15.6179C57.9052 16.2529 58.5158 16.8002 59.2649 16.8002H61.2076C61.3693 16.7897 61.4749 16.6633 61.4749 16.5302V14.4702C61.4749 14.337 61.3693 14.2106 61.2076 14.2002H59.1449ZM57.1742 13.5201C57.6858 12.9983 58.3872 12.7002 59.1449 12.7002H61.2249C61.2338 12.7002 61.2427 12.7004 61.2516 12.7007C62.2046 12.7347 62.9749 13.5059 62.9749 14.4702V16.5302C62.9749 17.4945 62.2046 18.2657 61.2516 18.2997C61.2427 18.3 61.2338 18.3002 61.2249 18.3002H59.2649C57.8553 18.3002 56.4872 17.2695 56.3578 15.7469C56.2771 14.8847 56.6054 14.0792 57.1742 13.5201Z"
    fill="#443616"
  />
  <path
    fillRule="evenodd"
    clipRule="evenodd"
    d="M45.916 12.5C45.916 12.0858 46.2518 11.75 46.666 11.75H53.666C54.0802 11.75 54.416 12.0858 54.416 12.5C54.416 12.9142 54.0802 13.25 53.666 13.25H46.666C46.2518 13.25 45.916 12.9142 45.916 12.5Z"
    fill="#443616"
  />
  <path
    d="M32.7585 42.5C32.1719 42.5 31.7452 42.356 31.4785 42.068C31.2119 41.78 31.0785 41.3693 31.0785 40.836V33.86H32.8065V40.404C32.8065 40.884 33.0412 41.124 33.5105 41.124H34.2465V42.5H32.7585ZM39.2648 42.66C39.0195 42.66 38.7475 42.644 38.4488 42.612C38.1501 42.58 37.8888 42.5267 37.6648 42.452L35.2328 36.532H36.9288L38.8968 41.332C39.8141 41.3747 40.4808 41.1133 40.8968 40.548C41.3128 39.972 41.5208 39.092 41.5208 37.908C41.5208 37.2147 41.4568 36.6707 41.3288 36.276C41.2008 35.8707 40.9821 35.588 40.6728 35.428C40.3741 35.2573 39.9581 35.172 39.4248 35.172H38.8168V33.86H39.6488C40.8861 33.86 41.7875 34.1907 42.3528 34.852C42.9181 35.5133 43.2008 36.5267 43.2008 37.892C43.2008 39.0227 43.0301 39.94 42.6888 40.644C42.3475 41.3373 41.8781 41.8493 41.2808 42.18C40.6941 42.5 40.0221 42.66 39.2648 42.66ZM36.12 32.548L36.2 31.332H42.792V32.548H36.12ZM47.688 42.66C46.76 42.66 46.0347 42.388 45.512 41.844C45 41.3 44.744 40.5267 44.744 39.524V33.86H46.488V39.444C46.488 40.0947 46.632 40.564 46.92 40.852C47.208 41.1293 47.656 41.268 48.264 41.268C48.7334 41.268 49.1814 41.172 49.608 40.98C50.0347 40.7773 50.3867 40.5267 50.664 40.228V33.86H52.392V42.5H50.808L50.728 41.556C50.3334 41.8867 49.8854 42.1533 49.384 42.356C48.8934 42.5587 48.328 42.66 47.688 42.66ZM57.0235 42.66C56.4795 42.66 55.9835 42.5747 55.5355 42.404C55.0875 42.2227 54.7302 41.94 54.4635 41.556C54.2075 41.1613 54.0795 40.6493 54.0795 40.02C54.0795 39.1773 54.3622 38.5213 54.9275 38.052C55.4929 37.5827 56.3302 37.348 57.4395 37.348H60.0795V36.804C60.0795 36.1747 59.9195 35.7373 59.5995 35.492C59.2795 35.236 58.6929 35.108 57.8395 35.108C57.3489 35.108 56.8689 35.14 56.3995 35.204C55.9302 35.268 55.4715 35.3747 55.0235 35.524V34.18C55.4395 34.0413 55.9249 33.9293 56.4795 33.844C57.0342 33.748 57.5889 33.7 58.1435 33.7C58.4209 33.7 58.6822 33.716 58.9275 33.748C59.1835 33.7693 59.4182 33.8067 59.6315 33.86H62.5275L62.4315 35.22H61.4235C61.5729 35.4547 61.6742 35.7213 61.7275 36.02C61.7809 36.308 61.8075 36.6227 61.8075 36.964V42.5H60.0795V38.692H57.5355C56.9489 38.692 56.5009 38.7933 56.1915 38.996C55.8929 39.188 55.7435 39.5293 55.7435 40.02C55.7435 40.4893 55.8769 40.8147 56.1435 40.996C56.4209 41.1773 56.8689 41.268 57.4875 41.268C57.6795 41.268 57.8715 41.2573 58.0635 41.236C58.2662 41.2147 58.4369 41.1827 58.5755 41.14V42.468C58.3835 42.5213 58.1542 42.564 57.8875 42.596C57.6209 42.6387 57.3329 42.66 57.0235 42.66ZM67.2375 42.66C66.5655 42.66 65.9629 42.5107 65.4295 42.212C64.8962 41.9133 64.4749 41.444 64.1655 40.804C63.8562 40.1533 63.7015 39.3213 63.7015 38.308C63.7015 36.868 64.0695 35.7427 64.8055 34.932C65.5415 34.1107 66.6455 33.7 68.1175 33.7C69.1095 33.7 69.9095 33.8707 70.5175 34.212C71.1255 34.5427 71.5682 34.9747 71.8455 35.508C72.1335 36.0413 72.2775 36.612 72.2775 37.22V42.5H70.5335V37.3C70.5335 36.8733 70.4589 36.4947 70.3095 36.164C70.1602 35.8333 69.9042 35.5773 69.5415 35.396C69.1895 35.204 68.7042 35.108 68.0855 35.108C67.1469 35.108 66.4589 35.38 66.0215 35.924C65.5949 36.468 65.3815 37.2627 65.3815 38.308C65.3815 39.4067 65.5682 40.1747 65.9415 40.612C66.3149 41.0493 66.8482 41.268 67.5415 41.268C67.7442 41.268 67.9415 41.2573 68.1335 41.236C68.3362 41.2147 68.5069 41.1827 68.6455 41.14V42.468C68.4642 42.532 68.2615 42.58 68.0375 42.612C67.8135 42.644 67.5469 42.66 67.2375 42.66Z"
    fill="#443616"
  />
</svg>