<svg
  width="104"
  height="49"
  viewBox="0 0 104 49"
  fill="none"
  xmlns="http://www.w3.org/2000/svg"
>
  <path
    fillRule="evenodd"
    clipRule="evenodd"
    d="M41.25 9.00488C41.25 8.59067 41.5858 8.25488 42 8.25488H62C62.4142 8.25488 62.75 8.59067 62.75 9.00488C62.75 9.4191 62.4142 9.75488 62 9.75488H42C41.5858 9.75488 41.25 9.4191 41.25 9.00488Z"
    fill="#443616"
  />
  <path
    fillRule="evenodd"
    clipRule="evenodd"
    d="M45.25 17.0049C45.25 16.5907 45.5858 16.2549 46 16.2549H48C48.4142 16.2549 48.75 16.5907 48.75 17.0049C48.75 17.4191 48.4142 17.7549 48 17.7549H46C45.5858 17.7549 45.25 17.4191 45.25 17.0049Z"
    fill="#443616"
  />
  <path
    fillRule="evenodd"
    clipRule="evenodd"
    d="M49.75 17.0049C49.75 16.5907 50.0858 16.2549 50.5 16.2549H54.5C54.9142 16.2549 55.25 16.5907 55.25 17.0049C55.25 17.4191 54.9142 17.7549 54.5 17.7549H50.5C50.0858 17.7549 49.75 17.4191 49.75 17.0049Z"
    fill="#443616"
  />
  <path
    fillRule="evenodd"
    clipRule="evenodd"
    d="M43.4161 5.41696C42.991 5.83723 42.75 6.63606 42.75 8.39488V16.6149C42.75 18.3741 42.9911 19.1722 43.4156 19.5911C43.8427 20.0126 44.6568 20.2499 46.4379 20.2449L46.44 20.2449L57.56 20.2449C59.341 20.2449 60.1559 20.006 60.5839 19.5828C61.009 19.1625 61.25 18.3637 61.25 16.6049V8.39488C61.25 6.63599 61.0089 5.83764 60.5832 5.41745C60.1539 4.99384 59.3363 4.75488 57.55 4.75488H46.44C44.659 4.75488 43.8441 4.99376 43.4161 5.41696ZM42.3614 4.35031C43.2659 3.45601 44.671 3.25488 46.44 3.25488H57.55C59.3237 3.25488 60.7311 3.45593 61.6368 4.34982C62.5461 5.24713 62.75 6.64378 62.75 8.39488V16.6049C62.75 18.3561 62.546 19.7522 61.6386 20.6495C60.7341 21.5438 59.329 21.7449 57.56 21.7449H46.4407C44.6725 21.7498 43.267 21.5519 42.3619 20.6587C41.4539 19.7626 41.25 18.3657 41.25 16.6149V8.39488C41.25 6.64371 41.454 5.24753 42.3614 4.35031Z"
    fill="#443616"
  />
  <path
    d="M21.7581 42.66C20.5208 42.66 19.5501 42.3667 18.8461 41.78C18.1528 41.1933 17.8061 40.3133 17.8061 39.14V33.86H19.5501V39.204C19.5501 39.9187 19.7368 40.4413 20.1101 40.772C20.4941 41.1027 21.0435 41.268 21.7581 41.268C22.4835 41.268 23.0328 41.1027 23.4061 40.772C23.7901 40.4413 23.9821 39.9187 23.9821 39.204V33.86H25.7101V39.14C25.7101 40.3133 25.3635 41.1933 24.6701 41.78C23.9768 42.3667 23.0061 42.66 21.7581 42.66ZM21.8396 32.548V30.212H23.2796V31.332H27.4236L27.3436 32.548H21.8396ZM30.7996 42.66C30.1276 42.66 29.525 42.5107 28.9916 42.212C28.4583 41.9133 28.037 41.444 27.7276 40.804C27.4183 40.1533 27.2636 39.3213 27.2636 38.308C27.2636 36.8147 27.5143 35.6733 28.0156 34.884C28.517 34.0947 29.2156 33.7 30.1116 33.7C30.549 33.7 30.8956 33.78 31.1516 33.94C31.4183 34.0893 31.6476 34.2867 31.8396 34.532C32.0636 34.2867 32.357 34.0893 32.7196 33.94C33.0823 33.78 33.4503 33.7 33.8236 33.7C34.517 33.7 35.0343 33.908 35.3756 34.324C35.717 34.7293 35.8876 35.2947 35.8876 36.02V42.5H34.1436V36.276C34.1436 35.8707 34.085 35.5773 33.9676 35.396C33.861 35.204 33.637 35.108 33.2956 35.108C33.0823 35.108 32.885 35.1667 32.7036 35.284C32.5223 35.4013 32.389 35.588 32.3036 35.844H31.3436C31.2156 35.588 31.0823 35.4013 30.9436 35.284C30.805 35.1667 30.6076 35.108 30.3516 35.108C29.797 35.108 29.4236 35.4013 29.2316 35.988C29.0396 36.5747 28.9436 37.348 28.9436 38.308C28.9436 39.4067 29.1303 40.1747 29.5036 40.612C29.877 41.0493 30.4103 41.268 31.1036 41.268C31.3063 41.268 31.5036 41.2573 31.6956 41.236C31.8983 41.2147 32.069 41.1827 32.2076 41.14V42.468C32.0263 42.532 31.8236 42.58 31.5996 42.612C31.3756 42.644 31.109 42.66 30.7996 42.66ZM40.6794 42.66C40.1141 42.66 39.5647 42.6227 39.0314 42.548C38.5087 42.4733 38.0767 42.3667 37.7354 42.228V40.772C38.1407 40.932 38.5781 41.0547 39.0474 41.14C39.5274 41.2253 39.9647 41.268 40.3594 41.268C41.0954 41.268 41.6394 41.204 41.9914 41.076C42.3434 40.9373 42.5194 40.6547 42.5194 40.228C42.5194 39.9187 42.4287 39.684 42.2474 39.524C42.0661 39.364 41.7994 39.2253 41.4474 39.108C41.0954 38.98 40.6581 38.8307 40.1354 38.66C39.6447 38.4893 39.2021 38.3027 38.8074 38.1C38.4127 37.8973 38.0981 37.6413 37.8634 37.332C37.6394 37.0227 37.5274 36.6333 37.5274 36.164C37.5274 35.4067 37.8154 34.8093 38.3914 34.372C38.9674 33.924 39.8367 33.7 40.9994 33.7C41.4901 33.7 41.9754 33.7373 42.4554 33.812C42.9354 33.8867 43.3301 33.9773 43.6394 34.084V35.524C43.2874 35.3853 42.8927 35.284 42.4554 35.22C42.0287 35.1453 41.6287 35.108 41.2554 35.108C40.6367 35.108 40.1407 35.1773 39.7674 35.316C39.3941 35.444 39.2074 35.7107 39.2074 36.116C39.2074 36.3827 39.3034 36.596 39.4954 36.756C39.6874 36.9053 39.9594 37.044 40.3114 37.172C40.6741 37.2893 41.1061 37.4333 41.6074 37.604C42.1727 37.7853 42.6474 37.988 43.0314 38.212C43.4154 38.4253 43.7034 38.692 43.8954 39.012C44.0981 39.3213 44.1994 39.7267 44.1994 40.228C44.1994 41.0707 43.8794 41.6893 43.2394 42.084C42.6101 42.468 41.7567 42.66 40.6794 42.66ZM47.5419 42.5C46.9552 42.5 46.5286 42.356 46.2619 42.068C45.9952 41.78 45.8619 41.3693 45.8619 40.836V33.86H47.5899V40.404C47.5899 40.884 47.8246 41.124 48.2939 41.124H49.0299V42.5H47.5419ZM50.6561 42.5V37.028C50.6561 35.9827 50.9708 35.1667 51.6001 34.58C52.2295 33.9933 53.2215 33.7 54.5761 33.7C55.9415 33.7 56.9281 33.9933 57.5361 34.58C58.1548 35.1667 58.4641 35.9827 58.4641 37.028V42.5H56.7201V36.868C56.7201 36.26 56.5335 35.8173 56.1601 35.54C55.7868 35.252 55.2588 35.108 54.5761 35.108C53.8615 35.108 53.3175 35.252 52.9441 35.54C52.5815 35.8173 52.4001 36.26 52.4001 36.868V38.644C52.8695 38.26 53.4295 38.068 54.0801 38.068H55.1201L55.1841 39.46H54.0321C53.3815 39.46 52.8375 39.6413 52.4001 40.004V42.5H50.6561ZM63.2519 42.66C62.6866 42.66 62.1372 42.6227 61.6039 42.548C61.0812 42.4733 60.6492 42.3667 60.3079 42.228V40.772C60.7132 40.932 61.1506 41.0547 61.6199 41.14C62.0999 41.2253 62.5372 41.268 62.9319 41.268C63.6679 41.268 64.2119 41.204 64.5639 41.076C64.9159 40.9373 65.0919 40.6547 65.0919 40.228C65.0919 39.9187 65.0012 39.684 64.8199 39.524C64.6386 39.364 64.3719 39.2253 64.0199 39.108C63.6679 38.98 63.2306 38.8307 62.7079 38.66C62.2172 38.4893 61.7746 38.3027 61.3799 38.1C60.9852 37.8973 60.6706 37.6413 60.4359 37.332C60.2119 37.0227 60.0999 36.6333 60.0999 36.164C60.0999 35.4067 60.3879 34.8093 60.9639 34.372C61.5399 33.924 62.4092 33.7 63.5719 33.7C64.0626 33.7 64.5479 33.7373 65.0279 33.812C65.5079 33.8867 65.9026 33.9773 66.2119 34.084V35.524C65.8599 35.3853 65.4652 35.284 65.0279 35.22C64.6012 35.1453 64.2012 35.108 63.8279 35.108C63.2092 35.108 62.7132 35.1773 62.3399 35.316C61.9666 35.444 61.7799 35.7107 61.7799 36.116C61.7799 36.3827 61.8759 36.596 62.0679 36.756C62.2599 36.9053 62.5319 37.044 62.8839 37.172C63.2466 37.2893 63.6786 37.4333 64.1799 37.604C64.7452 37.7853 65.2199 37.988 65.6039 38.212C65.9879 38.4253 66.2759 38.692 66.4679 39.012C66.6706 39.3213 66.7719 39.7267 66.7719 40.228C66.7719 41.0707 66.4519 41.6893 65.8119 42.084C65.1826 42.468 64.3292 42.66 63.2519 42.66ZM71.6184 42.66C70.9464 42.66 70.3437 42.5107 69.8104 42.212C69.2771 41.9133 68.8557 41.444 68.5464 40.804C68.2371 40.1533 68.0824 39.3213 68.0824 38.308C68.0824 36.868 68.4504 35.7427 69.1864 34.932C69.9224 34.1107 71.0264 33.7 72.4984 33.7C73.4904 33.7 74.2904 33.8707 74.8984 34.212C75.5064 34.5427 75.9491 34.9747 76.2264 35.508C76.5144 36.0413 76.6584 36.612 76.6584 37.22V42.5H74.9144V37.3C74.9144 36.8733 74.8397 36.4947 74.6904 36.164C74.5411 35.8333 74.2851 35.5773 73.9224 35.396C73.5704 35.204 73.0851 35.108 72.4664 35.108C71.5277 35.108 70.8397 35.38 70.4024 35.924C69.9757 36.468 69.7624 37.2627 69.7624 38.308C69.7624 39.4067 69.9491 40.1747 70.3224 40.612C70.6957 41.0493 71.2291 41.268 71.9224 41.268C72.1251 41.268 72.3224 41.2573 72.5144 41.236C72.7171 41.2147 72.8877 41.1827 73.0264 41.14V42.468C72.8451 42.532 72.6424 42.58 72.4184 42.612C72.1944 42.644 71.9277 42.66 71.6184 42.66ZM69.8996 32.548L69.9796 31.332H76.5716V32.548H69.8996ZM78.5236 42.5V33.86H80.1076L80.2036 34.804C80.5983 34.4627 81.0463 34.196 81.5476 34.004C82.049 33.8013 82.625 33.7 83.2756 33.7C84.193 33.7 84.9023 33.972 85.4036 34.516C85.9156 35.06 86.1716 35.8227 86.1716 36.804V42.5H84.4436V36.884C84.4436 36.2547 84.2943 35.8013 83.9956 35.524C83.697 35.2467 83.249 35.108 82.6516 35.108C82.1716 35.108 81.7236 35.2093 81.3076 35.412C80.8916 35.604 80.545 35.8493 80.2676 36.148V42.5H78.5236Z"
    fill="#443616"
  />
</svg>