<svg
  width="104"
  height="49"
  viewBox="0 0 104 49"
  fill="none"
  xmlns="http://www.w3.org/2000/svg"
>
  <path
    fillRule="evenodd"
    clipRule="evenodd"
    d="M51.292 9.74023C50.945 9.74023 50.592 10.0546 50.592 10.5202C50.592 10.8728 50.6677 11 50.7056 11.0483C50.7506 11.1056 50.8407 11.177 51.0814 11.2629L54.0935 12.3136C54.4459 12.4391 54.8486 12.6359 55.1494 13.0211C55.4569 13.4148 55.582 13.9059 55.582 14.4702C55.582 15.6979 54.6318 16.7502 53.382 16.7502H51.502C50.1368 16.7502 49.082 15.6027 49.082 14.2502C49.082 13.836 49.4178 13.5002 49.832 13.5002C50.2462 13.5002 50.582 13.836 50.582 14.2502C50.582 14.8378 51.0273 15.2502 51.502 15.2502H53.382C53.7322 15.2502 54.082 14.9425 54.082 14.4702C54.082 14.1246 54.0072 13.9956 53.9672 13.9443C53.9206 13.8847 53.8287 13.8118 53.5927 13.7276L50.5805 12.6768C50.2329 12.5531 49.8283 12.3597 49.5259 11.9747C49.2164 11.5805 49.092 11.0877 49.092 10.5202C49.092 9.30585 50.0391 8.24023 51.292 8.24023H53.172C54.5373 8.24023 55.592 9.38778 55.592 10.7402C55.592 11.1544 55.2563 11.4902 54.842 11.4902C54.4278 11.4902 54.092 11.1544 54.092 10.7402C54.092 10.1527 53.6468 9.74023 53.172 9.74023H51.292Z"
    fill="#443616"
  />
  <path
    fillRule="evenodd"
    clipRule="evenodd"
    d="M52.332 7.25C52.7462 7.25 53.082 7.58579 53.082 8V17C53.082 17.4142 52.7462 17.75 52.332 17.75C51.9178 17.75 51.582 17.4142 51.582 17V8C51.582 7.58579 51.9178 7.25 52.332 7.25Z"
    fill="#443616"
  />
  <path
    fillRule="evenodd"
    clipRule="evenodd"
    d="M52.332 3.25C47.2262 3.25 43.082 7.39421 43.082 12.5C43.082 17.6058 47.2262 21.75 52.332 21.75C57.4378 21.75 61.582 17.6058 61.582 12.5C61.582 12.0858 61.9178 11.75 62.332 11.75C62.7462 11.75 63.082 12.0858 63.082 12.5C63.082 18.4342 58.2662 23.25 52.332 23.25C46.3978 23.25 41.582 18.4342 41.582 12.5C41.582 6.56579 46.3978 1.75 52.332 1.75C52.7462 1.75 53.082 2.08579 53.082 2.5C53.082 2.91421 52.7462 3.25 52.332 3.25Z"
    fill="#443616"
  />
  <path
    fillRule="evenodd"
    clipRule="evenodd"
    d="M57.582 2.5C57.582 2.08579 57.9178 1.75 58.332 1.75H62.332C62.7462 1.75 63.082 2.08579 63.082 2.5V6.5C63.082 6.91421 62.7462 7.25 62.332 7.25C61.9178 7.25 61.582 6.91421 61.582 6.5V3.25H58.332C57.9178 3.25 57.582 2.91421 57.582 2.5Z"
    fill="#443616"
  />
  <path
    fillRule="evenodd"
    clipRule="evenodd"
    d="M62.8624 1.96967C63.1553 2.26256 63.1553 2.73744 62.8624 3.03033L57.8624 8.03033C57.5695 8.32322 57.0946 8.32322 56.8017 8.03033C56.5088 7.73744 56.5088 7.26256 56.8017 6.96967L61.8017 1.96967C62.0946 1.67678 62.5695 1.67678 62.8624 1.96967Z"
    fill="#443616"
  />
  <path
    d="M32.0874 42.5C31.4048 42.5 30.9514 42.3187 30.7274 41.956C30.5141 41.5827 30.4074 41.0867 30.4074 40.468V33.508C30.4074 32.8147 30.2741 32.2973 30.0074 31.956C29.7408 31.604 29.3248 31.3267 28.7594 31.124V29.796H33.6714V31.172H30.9514C31.3781 31.4067 31.6821 31.716 31.8634 32.1C32.0448 32.4733 32.1354 32.996 32.1354 33.668V40.404C32.1354 40.6813 32.1781 40.8733 32.2634 40.98C32.3594 41.076 32.5514 41.124 32.8394 41.124H33.5754V42.5H32.0874ZM37.9983 42.66C37.3156 42.66 36.6703 42.596 36.0623 42.468C35.465 42.34 34.9636 42.1907 34.5583 42.02V37.572H37.9823L38.0623 38.9H36.2383V40.996C36.4836 41.0813 36.761 41.1507 37.0703 41.204C37.3903 41.2467 37.6996 41.268 37.9983 41.268C38.9476 41.268 39.6143 41.044 39.9983 40.596C40.393 40.1373 40.5903 39.3427 40.5903 38.212C40.5903 37.4227 40.4943 36.804 40.3023 36.356C40.1103 35.8973 39.7903 35.5773 39.3423 35.396C38.905 35.204 38.3076 35.108 37.5503 35.108C37.0916 35.108 36.6116 35.14 36.1103 35.204C35.609 35.268 35.1343 35.3747 34.6863 35.524V34.18C35.1343 34.0307 35.6463 33.9133 36.2223 33.828C36.809 33.7427 37.3956 33.7 37.9823 33.7C39.497 33.7 40.5903 34.084 41.2623 34.852C41.9343 35.6093 42.2703 36.7293 42.2703 38.212C42.2703 39.6627 41.9343 40.7667 41.2623 41.524C40.5903 42.2813 39.5023 42.66 37.9983 42.66ZM46.8334 42.66C45.9054 42.66 45.1801 42.388 44.6574 41.844C44.1454 41.3 43.8894 40.5267 43.8894 39.524V33.86H45.6334V39.444C45.6334 40.0947 45.7774 40.564 46.0654 40.852C46.3534 41.1293 46.8014 41.268 47.4094 41.268C47.8788 41.268 48.3268 41.172 48.7534 40.98C49.1801 40.7773 49.5321 40.5267 49.8094 40.228V33.86H51.5374V42.5H49.9534L49.8734 41.556C49.4788 41.8867 49.0308 42.1533 48.5294 42.356C48.0388 42.5587 47.4734 42.66 46.8334 42.66ZM55.2089 42.5C54.6223 42.5 54.1956 42.356 53.9289 42.068C53.6623 41.78 53.5289 41.3693 53.5289 40.836V33.86H55.2569V40.404C55.2569 40.884 55.4916 41.124 55.9609 41.124H56.6969V42.5H55.2089ZM61.7152 42.66C61.4698 42.66 61.1978 42.644 60.8992 42.612C60.6005 42.58 60.3392 42.5267 60.1152 42.452L57.6832 36.532H59.3792L61.3472 41.332C62.2645 41.3747 62.9312 41.1133 63.3472 40.548C63.7632 39.972 63.9712 39.092 63.9712 37.908C63.9712 37.2147 63.9072 36.6707 63.7792 36.276C63.6512 35.8707 63.4325 35.588 63.1232 35.428C62.8245 35.2573 62.4085 35.172 61.8752 35.172H61.2672V33.86H62.0992C63.3365 33.86 64.2378 34.1907 64.8032 34.852C65.3685 35.5133 65.6512 36.5267 65.6512 37.892C65.6512 39.0227 65.4805 39.94 65.1392 40.644C64.7978 41.3373 64.3285 41.8493 63.7312 42.18C63.1445 42.5 62.4725 42.66 61.7152 42.66ZM58.5704 32.548L58.6504 31.332H65.2424V32.548H58.5704ZM70.1384 42.66C69.2104 42.66 68.4851 42.388 67.9624 41.844C67.4504 41.3 67.1944 40.5267 67.1944 39.524V33.86H68.9384V39.444C68.9384 40.0947 69.0824 40.564 69.3704 40.852C69.6584 41.1293 70.1064 41.268 70.7144 41.268C71.1838 41.268 71.6318 41.172 72.0584 40.98C72.4851 40.7773 72.8371 40.5267 73.1144 40.228V33.86H74.8424V42.5H73.2584L73.1784 41.556C72.7838 41.8867 72.3358 42.1533 71.8344 42.356C71.3438 42.5587 70.7784 42.66 70.1384 42.66Z"
    fill="#443616"
  />
</svg>